<svg version="1.1" viewBox="0.0 0.0 251.28608923884514 288.12073490813646" fill="none" stroke="none" stroke-linecap="square" stroke-miterlimit="10" xmlns:xlink="http://www.w3.org/1999/xlink" xmlns="http://www.w3.org/2000/svg"><clipPath id="p.0"><path d="m0 0l251.28609 0l0 288.12073l-251.28609 0l0 -288.12073z" clip-rule="nonzero"/></clipPath><g clip-path="url(#p.0)"><path fill="#000000" fill-opacity="0.0" d="m0 0l251.28609 0l0 288.12073l-251.28609 0z" fill-rule="evenodd"/><path fill="#ffffff" d="m125.64304 40.154854l89.81098 51.824554l0 104.16192l-89.81098 51.824554l-89.81098 -51.824554l0 -104.16192z" fill-rule="evenodd"/><path stroke="#073763" stroke-width="2.0" stroke-linejoin="round" stroke-linecap="butt" d="m125.64304 40.154854l89.81098 51.824554l0 104.16192l-89.81098 51.824554l-89.81098 -51.824554l0 -104.16192z" fill-rule="evenodd"/><path fill="#000000" fill-opacity="0.0" d="m62.7769 150.64305l62.866142 97.32283" fill-rule="evenodd"/><path stroke="#073763" stroke-width="2.0" stroke-linejoin="round" stroke-linecap="butt" d="m62.7769 150.64305l62.866142 97.32283" fill-rule="evenodd"/><path fill="#000000" fill-opacity="0.0" d="m125.64304 40.154854l-63.65354 112.0315" fill-rule="evenodd"/><path stroke="#073763" stroke-width="2.0" stroke-linejoin="round" stroke-linecap="butt" d="m125.64304 40.154854l-63.65354 112.0315" fill-rule="evenodd"/><path fill="#000000" fill-opacity="0.0" d="m35.83206 91.97941l26.929134 60.220467" fill-rule="evenodd"/><path stroke="#073763" stroke-width="2.0" stroke-linejoin="round" stroke-linecap="butt" d="m35.83206 91.97941l26.929134 60.220467" fill-rule="evenodd"/><path fill="#000000" fill-opacity="0.0" d="m35.83206 196.14133l26.929134 -44.72441" fill-rule="evenodd"/><path stroke="#073763" stroke-width="2.0" stroke-linejoin="round" stroke-linecap="butt" d="m35.83206 196.14133l26.929134 -44.72441" fill-rule="evenodd"/><path fill="#000000" fill-opacity="0.0" d="m162.7769 189.69817l-37.133858 58.267715" fill-rule="evenodd"/><path stroke="#073763" stroke-width="2.0" stroke-linejoin="round" stroke-linecap="butt" d="m162.7769 189.69817l-37.133858 58.267715" fill-rule="evenodd"/><path fill="#000000" fill-opacity="0.0" d="m61.84777 149.85564l101.22834 40.72441" fill-rule="evenodd"/><path stroke="#073763" stroke-width="2.0" stroke-linejoin="round" stroke-linecap="butt" d="m61.84777 149.85564l101.22834 40.72441" fill-rule="evenodd"/><path fill="#000000" fill-opacity="0.0" d="m162.57214 190.44054l52.88188 5.7007904" fill-rule="evenodd"/><path stroke="#073763" stroke-width="2.0" stroke-linejoin="round" stroke-linecap="butt" d="m162.57214 190.44054l52.88188 5.7007904" fill-rule="evenodd"/><path fill="#000000" fill-opacity="0.0" d="m162.69029 191.02887l23.968506 -77.196846" fill-rule="evenodd"/><path stroke="#073763" stroke-width="2.0" stroke-linejoin="round" stroke-linecap="butt" d="m162.69029 191.02887l23.968506 -77.196846" fill-rule="evenodd"/><path fill="#000000" fill-opacity="0.0" d="m63.68504 150.91339l122.48819 -36.0315" fill-rule="evenodd"/><path stroke="#073763" stroke-width="2.0" stroke-linejoin="round" stroke-linecap="butt" d="m63.68504 150.91339l122.48819 -36.0315" fill-rule="evenodd"/><path fill="#000000" fill-opacity="0.0" d="m125.64304 40.154854l60.62992 75.433075" fill-rule="evenodd"/><path stroke="#073763" stroke-width="2.0" stroke-linejoin="round" stroke-linecap="butt" d="m125.64304 40.154854l60.62992 75.433075" fill-rule="evenodd"/><path fill="#000000" fill-opacity="0.0" d="m185.37529 115.22794l30.078735 80.91338" fill-rule="evenodd"/><path stroke="#073763" stroke-width="2.0" stroke-linejoin="round" stroke-linecap="butt" d="m185.37529 115.22794l30.078735 80.91338" fill-rule="evenodd"/><path fill="#000000" fill-opacity="0.0" d="m186.7926 114.436104l28.661423 -22.456696" fill-rule="evenodd"/><path stroke="#073763" stroke-width="2.0" stroke-linejoin="round" stroke-linecap="butt" d="m186.7926 114.436104l28.661423 -22.456696" fill-rule="evenodd"/></g></svg>